<?xml version="1.0" standalone="no"?>
<!DOCTYPE svg PUBLIC "-//W3C//DTD SVG 20010904//EN"
 "http://www.w3.org/TR/2001/REC-SVG-20010904/DTD/svg10.dtd">
<svg version="1.0" xmlns="http://www.w3.org/2000/svg"
 width="894.000000pt" height="389.000000pt" viewBox="0 0 894.000000 389.000000"
 preserveAspectRatio="xMidYMid meet">

<g transform="translate(0.000000,389.000000) scale(0.100000,-0.100000)"
fill="#000000" stroke="none">
<path d="M680 2420 l0 -650 195 0 195 0 0 240 0 240 283 2 282 3 3 157 3 158
-283 2 -283 3 0 90 0 90 318 3 317 2 0 155 0 155 -515 0 -515 0 0 -650z"/>
<path d="M1852 2618 c4 -386 7 -462 21 -511 37 -127 112 -229 205 -280 94 -51
192 -71 357 -71 172 -1 239 11 342 60 88 42 152 104 193 187 54 111 60 172 60
643 l0 424 -195 0 -194 0 -3 -427 c-3 -405 -4 -430 -23 -468 -36 -72 -119
-106 -221 -90 -62 9 -118 59 -133 120 -7 29 -11 185 -11 454 l0 411 -201 0
-200 0 3 -452z"/>
<path d="M3142 2918 l3 -153 165 -5 165 -5 3 -492 2 -493 200 0 200 0 0 495 0
495 165 0 165 0 0 155 0 155 -535 0 -536 0 3 -152z"/>
<path d="M4323 2623 c4 -485 7 -515 63 -625 34 -66 101 -138 162 -171 94 -51
192 -71 357 -71 172 -1 239 11 342 60 88 42 152 104 193 187 54 111 60 172 60
643 l0 424 -195 0 -194 0 -3 -427 c-3 -405 -4 -430 -23 -468 -36 -72 -119
-106 -221 -90 -62 9 -118 59 -133 120 -7 29 -11 185 -11 454 l0 411 -201 0
-200 0 4 -447z"/>
<path d="M5760 2420 l0 -650 195 0 195 0 0 195 0 195 63 0 62 0 103 -195 103
-195 214 0 214 0 -111 193 c-60 105 -119 206 -130 224 l-19 32 38 19 c115 60
173 181 173 365 -1 245 -112 402 -321 452 -51 12 -138 15 -421 15 l-358 0 0
-650z m649 314 c88 -52 79 -211 -14 -250 -22 -9 -71 -14 -140 -14 l-105 0 0
138 c0 76 3 142 8 146 4 5 55 6 113 3 79 -3 115 -9 138 -23z"/>
<path d="M7040 2420 l0 -650 515 0 515 0 0 160 0 160 -320 0 -320 0 0 85 0 85
283 2 282 3 3 158 3 157 -286 0 -286 0 3 88 3 87 318 3 317 2 0 155 0 155
-515 0 -515 0 0 -650z"/>
<path d="M5461 1575 c-190 -42 -312 -155 -367 -340 -25 -85 -26 -284 0 -382
45 -178 165 -294 353 -340 92 -22 294 -22 387 0 246 61 368 237 368 532 0 298
-130 476 -387 530 -87 18 -269 18 -354 0z m306 -283 c76 -39 113 -121 113
-247 0 -184 -80 -277 -240 -278 -140 0 -219 71 -238 212 -17 125 19 255 84
297 74 49 202 56 281 16z"/>
<path d="M442 1043 l3 -528 160 0 160 0 5 254 5 254 193 -256 193 -257 149 0
150 0 0 530 0 530 -160 0 -160 0 0 -255 c0 -140 -3 -255 -7 -255 -5 0 -93 115
-198 255 l-189 255 -153 0 -153 0 2 -527z"/>
<path d="M1660 1040 l0 -530 423 2 422 3 3 127 3 128 -263 2 -263 3 -3 67 -3
68 233 2 233 3 3 127 3 128 -233 2 -233 3 -3 67 -3 68 263 2 263 3 3 128 3
127 -426 0 -425 0 0 -530z"/>
<path d="M2590 1440 l0 -130 140 0 140 0 0 -400 0 -400 160 0 160 0 0 400 0
400 135 0 135 0 0 130 0 130 -435 0 -435 0 0 -130z"/>
<path d="M3535 1413 c30 -87 113 -324 184 -528 l129 -370 133 0 133 0 90 253
c49 139 93 249 96 245 6 -7 46 -117 172 -475 l10 -28 132 0 132 0 180 522 c98
286 181 525 182 530 2 4 -75 8 -171 8 l-174 0 -68 -247 c-37 -137 -71 -254
-75 -262 -4 -8 -27 43 -55 125 -27 77 -68 193 -91 259 l-42 120 -134 3 -134 3
-89 -261 c-50 -143 -92 -260 -95 -260 -3 0 -38 117 -79 260 l-74 260 -173 0
-174 0 55 -157z"/>
<path d="M6340 1040 l0 -530 160 0 160 0 0 160 0 160 53 0 52 0 84 -160 85
-160 173 0 c95 0 173 2 173 4 0 3 -47 85 -104 183 -89 151 -102 180 -89 188 8
6 29 19 46 30 70 46 107 141 107 276 0 205 -91 330 -268 368 -32 7 -166 11
-342 11 l-290 0 0 -530z m551 241 c25 -25 29 -37 29 -84 0 -45 -4 -59 -26 -80
-28 -28 -92 -41 -179 -35 l-50 3 -3 113 -3 112 101 0 c99 0 102 -1 131 -29z"/>
<path d="M7410 1040 l0 -530 160 0 160 0 0 185 c0 102 4 185 9 185 4 0 82 -83
171 -185 l163 -185 201 0 200 0 -26 27 c-14 16 -120 130 -236 256 -117 125
-212 232 -212 239 0 6 26 43 58 82 116 141 348 431 356 444 6 9 -33 12 -181
12 l-188 -1 -150 -199 c-82 -110 -153 -200 -157 -200 -5 0 -8 90 -8 200 l0
200 -160 0 -160 0 0 -530z"/>
</g>
</svg>
